<svg width="91" height="24" viewBox="0 0 91 24" fill="none" xmlns="http://www.w3.org/2000/svg">
    <path d="M0 16.6067L3.78667 9.11L0 3.05778V16.6067Z" fill="#EC8F26"/>
    <path d="M1.71889 24L11.1111 15.3611L5.10667 17.9489L1.71889 24Z" fill="#EBA12A"/>
    <path d="M9.11222 0L0.0788889 17.4778L5.95778 14.4978L11.0422 8.34778L9.11222 0Z" fill="#EBA12A"/>
    <path d="M5.95778 14.4978L0.0788889 17.4778L5.10667 17.9489L11.1111 15.3611L5.95778 14.4978Z" fill="#EC8F26"/>
    <path d="M26.1618 18V10.856L23.5778 16.0578H22.0578L19.4738 10.856V18H16.704V6.00889H19.7102L22.8178 12.2747L25.9422 6.00889H28.9316V18H26.1618Z" fill="#EBA12A"/>
    <path d="M35.1499 18.1689C34.3956 18.1689 33.7257 18.0507 33.1402 17.8142C32.5547 17.5665 32.0536 17.2344 31.6371 16.8178C31.2317 16.4012 30.9221 15.9227 30.7082 15.3822C30.4942 14.8305 30.3873 14.2563 30.3873 13.6596C30.3873 12.8039 30.5731 12.027 30.9446 11.3289C31.3274 10.6196 31.8735 10.051 32.5828 9.62311C33.2922 9.184 34.1479 8.96444 35.1499 8.96444C36.152 8.96444 37.0021 9.17837 37.7002 9.60622C38.4095 10.0341 38.9499 10.597 39.3215 11.2951C39.6931 11.9819 39.8788 12.7307 39.8788 13.5413C39.8788 13.699 39.8676 13.8566 39.8451 14.0142C39.8338 14.1606 39.8225 14.2901 39.8113 14.4027H33.2584C33.2922 14.7967 33.3991 15.1289 33.5793 15.3991C33.7707 15.6693 34.0128 15.8776 34.3055 16.024C34.5982 16.1591 34.9079 16.2267 35.2344 16.2267C35.6397 16.2267 36.0169 16.131 36.3659 15.9396C36.7262 15.7481 36.9739 15.4892 37.1091 15.1627L39.4059 15.8044C39.1808 16.2661 38.8599 16.677 38.4433 17.0373C38.0379 17.3864 37.5538 17.6622 36.9908 17.8649C36.4391 18.0676 35.8255 18.1689 35.1499 18.1689ZM33.1908 12.7476H37.0415C36.9965 12.376 36.8895 12.0551 36.7206 11.7849C36.5517 11.5034 36.3265 11.2895 36.0451 11.1431C35.7636 10.9855 35.4539 10.9067 35.1162 10.9067C34.7671 10.9067 34.4519 10.9855 34.1704 11.1431C33.9002 11.2895 33.6806 11.5034 33.5117 11.7849C33.3428 12.0551 33.2359 12.376 33.1908 12.7476Z" fill="#EBA12A"/>
    <path d="M55.1658 18H52.4635V13.0178C52.4635 12.4436 52.3566 12.0213 52.1427 11.7511C51.9287 11.4809 51.6529 11.3458 51.3151 11.3458C50.9548 11.3458 50.6001 11.4921 50.2511 11.7849C49.9021 12.0776 49.6544 12.4548 49.508 12.9164V18H46.8058V13.0178C46.8058 12.4323 46.6988 12.0101 46.4849 11.7511C46.271 11.4809 45.9951 11.3458 45.6573 11.3458C45.3083 11.3458 44.9592 11.4921 44.6102 11.7849C44.2612 12.0776 44.0078 12.4548 43.8502 12.9164V18H41.148V9.13333H43.58V10.6196C43.9065 10.0904 44.3456 9.68504 44.8973 9.40356C45.4603 9.11081 46.1133 8.96444 46.8564 8.96444C47.5883 8.96444 48.1513 9.13896 48.5453 9.488C48.9394 9.82578 49.1927 10.2255 49.3053 10.6871C49.6431 10.1354 50.0878 9.71318 50.6395 9.42044C51.2025 9.11644 51.833 8.96444 52.5311 8.96444C53.0941 8.96444 53.5501 9.07141 53.8991 9.28533C54.2481 9.488 54.5127 9.75822 54.6929 10.096C54.873 10.4338 54.9969 10.7997 55.0644 11.1938C55.132 11.5766 55.1658 11.9538 55.1658 12.3253V18Z" fill="#EBA12A"/>
    <path d="M59.1412 18L55.9999 9.13333H58.7866L60.7288 15.568L62.671 9.13333H65.2043L62.0799 18H59.1412Z" fill="#EBA12A"/>
    <path d="M70.2156 18.1689C69.4612 18.1689 68.7913 18.0507 68.2058 17.8142C67.6203 17.5665 67.1193 17.2344 66.7027 16.8178C66.2974 16.4012 65.9877 15.9227 65.7738 15.3822C65.5599 14.8305 65.4529 14.2563 65.4529 13.6596C65.4529 12.8039 65.6387 12.027 66.0102 11.3289C66.3931 10.6196 66.9391 10.051 67.6485 9.62311C68.3578 9.184 69.2135 8.96444 70.2156 8.96444C71.2176 8.96444 72.0677 9.17837 72.7658 9.60622C73.4751 10.0341 74.0156 10.597 74.3871 11.2951C74.7587 11.9819 74.9445 12.7307 74.9445 13.5413C74.9445 13.699 74.9332 13.8566 74.9107 14.0142C74.8994 14.1606 74.8882 14.2901 74.8769 14.4027H68.324C68.3578 14.7967 68.4648 15.1289 68.6449 15.3991C68.8363 15.6693 69.0784 15.8776 69.3711 16.024C69.6639 16.1591 69.9735 16.2267 70.3 16.2267C70.7054 16.2267 71.0825 16.131 71.4316 15.9396C71.7919 15.7481 72.0396 15.4892 72.1747 15.1627L74.4716 15.8044C74.2464 16.2661 73.9255 16.677 73.5089 17.0373C73.1036 17.3864 72.6194 17.6622 72.0565 17.8649C71.5048 18.0676 70.8911 18.1689 70.2156 18.1689ZM68.2565 12.7476H72.1071C72.0621 12.376 71.9551 12.0551 71.7862 11.7849C71.6174 11.5034 71.3922 11.2895 71.1107 11.1431C70.8292 10.9855 70.5196 10.9067 70.1818 10.9067C69.8328 10.9067 69.5175 10.9855 69.236 11.1431C68.9658 11.2895 68.7462 11.5034 68.5774 11.7849C68.4085 12.0551 68.3015 12.376 68.2565 12.7476Z" fill="#EBA12A"/>
    <path d="M81.8376 11.4471C81.1846 11.4471 80.5935 11.5541 80.0643 11.768C79.5351 11.9707 79.1523 12.2747 78.9158 12.68V18H76.2136V9.13333H78.6963V10.9236C79.0003 10.3268 79.3944 9.85955 79.8785 9.52178C80.3627 9.184 80.8693 9.00948 81.3985 8.99822C81.5224 8.99822 81.6124 8.99822 81.6687 8.99822C81.7363 8.99822 81.7926 9.00385 81.8376 9.01511V11.4471Z" fill="#EBA12A"/>
    <path d="M86.4149 18.1689C85.6605 18.1689 84.923 18.045 84.2024 17.7973C83.4818 17.5496 82.8738 17.1837 82.3784 16.6996L83.3073 14.9938C83.8478 15.3879 84.3713 15.6862 84.878 15.8889C85.3959 16.0916 85.8801 16.1929 86.3304 16.1929C86.6795 16.1929 86.9497 16.1366 87.1411 16.024C87.3325 15.9114 87.4282 15.7369 87.4282 15.5004C87.4282 15.3316 87.3719 15.2021 87.2593 15.112C87.1467 15.0107 86.9722 14.9206 86.7358 14.8418C86.5106 14.763 86.2291 14.6785 85.8913 14.5884C85.2158 14.3633 84.6528 14.1437 84.2024 13.9298C83.7521 13.7159 83.4143 13.4569 83.1891 13.1529C82.9639 12.8376 82.8513 12.4323 82.8513 11.9369C82.8513 11.3401 82.9977 10.8222 83.2904 10.3831C83.5944 9.93274 84.0223 9.5837 84.574 9.336C85.1257 9.0883 85.7844 8.96444 86.55 8.96444C87.158 8.96444 87.7491 9.06015 88.3233 9.25156C88.9088 9.44296 89.4549 9.76385 89.9616 10.2142L88.9144 11.9031C88.4078 11.5541 87.9574 11.3007 87.5633 11.1431C87.1693 10.9855 86.7864 10.9067 86.4149 10.9067C86.2235 10.9067 86.049 10.9292 85.8913 10.9742C85.7337 11.0193 85.6042 11.0981 85.5029 11.2107C85.4128 11.312 85.3678 11.4471 85.3678 11.616C85.3678 11.7849 85.4128 11.92 85.5029 12.0213C85.6042 12.1227 85.7562 12.2127 85.9589 12.2916C86.1728 12.3591 86.4374 12.4436 86.7527 12.5449C87.4845 12.7588 88.0925 12.9784 88.5767 13.2036C89.0608 13.4175 89.4211 13.6877 89.6576 14.0142C89.9053 14.3295 90.0291 14.7517 90.0291 15.2809C90.0291 16.1816 89.7026 16.891 89.0496 17.4089C88.4078 17.9156 87.5295 18.1689 86.4149 18.1689Z" fill="#EBA12A"/>
</svg>
